<?xml version="1.0" encoding="utf-8"?>
<!-- Generator: Adobe Illustrator 23.1.0, SVG Export Plug-In . SVG Version: 6.00 Build 0)  -->
<svg version="1.1" id="Layer_1" xmlns="http://www.w3.org/2000/svg" xmlns:xlink="http://www.w3.org/1999/xlink" x="0px" y="0px"
	 viewBox="0 0 228.71 53.73" style="enable-background:new 0 0 228.71 53.73;" xml:space="preserve">
<style type="text/css">
	.st0{fill:url(#SVGID_1_);}
	.st1{fill:#28313A;}
	.st2{display:none;}
	.st3{display:inline;fill:#D6BF96;}
	.st4{display:none;fill:#EF5553;}
	.st5{display:none;fill:#231F20;}
	.st6{display:none;fill:#87A47D;}
	.st7{fill:#FFFFFF;}
</style>
<g id="Logo">
	<linearGradient id="SVGID_1_" gradientUnits="userSpaceOnUse" x1="25.9564" y1="42.6166" x2="25.9564" y2="7.1529">
		<stop  offset="0" style="stop-color:#507065"/>
		<stop  offset="1" style="stop-color:#87A47D"/>
	</linearGradient>
	<ellipse class="st0" cx="25.96" cy="26.86" rx="25.96" ry="26.86"/>
	<g>
		<path class="st1" d="M19.48,32.27c0.04-0.19,0.06-0.32,0.09-0.46c1.03-5.44,2.03-10.64,2.94-15.61c0.38-2.09,1.86-3.89,3.45-4.43
			c1.97-0.67,3.93-1.4,5.88-2.09c1.77-0.63,3.52-1.26,5.28-1.86c0.44-0.15,0.89-0.28,1.33-0.29c0.87-0.03,1.45,0.78,1.42,1.84
			c-0.01,0.2-0.02,0.41-0.04,0.62c-0.78,6.8-1.63,14.04-2.51,21.75c-0.23,2-1.03,3.59-2.28,4.9c-1.72,1.79-3.57,2.5-5.5,2.28
			c-1.07-0.12-1.99-0.61-2.64-1.67c-0.47-0.77-0.67-1.7-0.55-2.82c0.18-1.8,0.94-3.23,2-4.46c0.97-1.12,2.06-1.85,3.22-2.25
			c1.24-0.43,2.43-0.48,3.55-0.03c0.15,0.06,0.29,0.16,0.46,0.26c0.02-0.13,0.05-0.24,0.06-0.34c0.45-3.63,0.88-7.15,1.32-10.57
			c0.13-0.97-0.28-1.3-0.96-1.05c-0.97,0.35-1.93,0.71-2.9,1.08c-1.53,0.58-3.08,1.16-4.62,1.74c-1.11,0.42-2.22,0.81-3.33,1.27
			c-0.35,0.15-0.71,0.44-1.02,0.73c-0.37,0.34-0.54,0.84-0.63,1.37c-0.79,4.41-1.64,8.98-2.45,13.74c-0.47,2.76-1.69,4.85-3.63,6.35
			c-2.1,1.61-4.13,2.05-5.99,1.15c-0.81-0.39-1.4-1.13-1.62-2.29c-0.26-1.37,0.06-2.78,0.75-4.2c0.55-1.11,1.25-2.03,2.06-2.79
			c1.71-1.63,3.47-2.37,5.25-2.36C18.42,31.76,18.97,31.9,19.48,32.27z"/>
	</g>
	<g class="st2">
		<path class="st3" d="M21.03,35.91c0.81-4.76,1.67-9.33,2.45-13.74c0.09-0.53,0.26-1.03,0.63-1.37c0.32-0.29,0.67-0.58,1.02-0.73
			c1.11-0.46,2.22-0.85,3.33-1.27c1.55-0.58,3.09-1.17,4.62-1.74c0.97-0.36,1.94-0.73,2.9-1.08c0.21-0.08,0.39-0.1,0.54-0.06
			l-3.68-6.6c-0.34,0.12-0.68,0.24-1.02,0.36c-1.95,0.69-3.91,1.42-5.88,2.09c-1.6,0.54-3.07,2.34-3.45,4.43
			c-0.91,4.98-1.91,10.17-2.94,15.61c-0.03,0.13-0.05,0.27-0.09,0.46c-0.51-0.36-1.06-0.5-1.64-0.5c-1.79-0.01-3.54,0.73-5.25,2.36
			c-0.8,0.77-1.51,1.68-2.06,2.79c-0.56,1.15-0.88,2.3-0.84,3.43h9.56C20.13,39.12,20.73,37.65,21.03,35.91z"/>
		<path class="st3" d="M35.57,27.94c-0.18-0.1-0.31-0.2-0.46-0.26c-1.13-0.45-2.32-0.4-3.55,0.03c-1.16,0.41-2.25,1.13-3.22,2.25
			c-1.07,1.23-1.82,2.66-2,4.46c-0.11,1.12,0.08,2.05,0.55,2.82c0.64,1.05,1.57,1.54,2.64,1.67c1.93,0.22,3.79-0.5,5.5-2.28
			c1.25-1.3,2.06-2.9,2.28-4.9c0.47-4.12,0.93-8.11,1.38-11.96l-1.7-3.05c0,0.1-0.01,0.2-0.02,0.32c-0.45,3.42-0.87,6.94-1.32,10.57
			C35.62,27.7,35.6,27.8,35.57,27.94z"/>
	</g>
	<rect x="3.76" y="33.44" class="st4" width="41.18" height="8.23"/>
	<path class="st5" d="M2.65,2.01v46.41h43.39V2.01H2.65z M44.31,37.46v8.99H4.39v-8.99H44.31z M44.31,26.51v8.99H4.39v-8.99H44.31z
		 M44.31,15.56v8.99H4.39v-8.99H44.31z M4.39,13.61V3.96h39.92v9.64H4.39z"/>
	<polygon class="st6" points="27.25,-0.73 4.34,40.35 50.17,40.35 	"/>
</g>
<g>
	<path class="st7" d="M81.79,30.57c0,2.64-1.11,4.91-3.34,6.8c-1.95,1.67-4.33,2.73-7.13,3.18c-0.1,0.01-0.19,0.02-0.25,0.02
		c-0.3,0-0.96-0.92-1.99-2.74c-1.03-1.83-1.54-2.95-1.54-3.35c0-0.14,0.1-0.23,0.29-0.27c1.89-0.43,3.14-0.79,3.75-1.09
		c1.35-0.68,2.03-1.68,2.03-3.01c0-0.85-0.44-1.79-1.33-2.83c-1.54-1.77-2.37-2.75-2.5-2.95c-0.9-1.35-1.35-2.85-1.35-4.49
		c0-2.38,1.1-4.36,3.3-5.94c1.8-1.3,4-2.15,6.62-2.54c0.14-0.01,0.25-0.02,0.33-0.02c0.2,0,0.35,0.16,0.47,0.47
		c0.34,0.95,1.13,2.67,2.36,5.16c0.04,0.08,0.06,0.14,0.06,0.2c0,0.22-0.12,0.33-0.35,0.33c-0.1,0-0.28-0.02-0.53-0.06
		c-0.25-0.04-0.44-0.06-0.57-0.06c-0.94,0-1.76,0.21-2.46,0.64c-0.85,0.5-1.27,1.19-1.27,2.07c0,0.79,0.47,1.77,1.41,2.93
		c1.65,2.08,2.52,3.18,2.6,3.28C81.32,27.72,81.79,29.15,81.79,30.57z"/>
	<path class="st7" d="M110.43,22.6c0,3.15-0.83,5.7-2.48,7.66c-1.77,2.07-4.21,3.11-7.32,3.11c-0.52,0-1.31-0.03-2.35-0.09
		c-1.05-0.06-1.83-0.09-2.35-0.09c-0.56,0-0.84,0.24-0.84,0.72c0,0.6,0.06,1.49,0.18,2.68c0.12,1.19,0.18,2.07,0.18,2.66
		c0,0.3-0.14,0.45-0.41,0.45c-0.79,0-1.99-0.02-3.57-0.07c-1.59-0.05-2.78-0.07-3.57-0.07c-0.38,0-0.57-0.19-0.57-0.57
		c0-1.45,0.02-3.62,0.07-6.51c0.05-2.9,0.07-5.07,0.07-6.51c0-4.09-0.18-8.39-0.53-12.89l-0.02-0.27c-0.03-0.25,0.17-0.4,0.59-0.45
		c1.02-0.13,3.25-0.2,6.72-0.2c2.04,0,4,0.03,5.88,0.08c3.09,0.09,5.57,1.06,7.46,2.91C109.46,17.04,110.43,19.53,110.43,22.6z
		 M102.63,22.91c0-3.03-1.48-4.55-4.43-4.55c-2.08,0-3.18,0.12-3.28,0.35c-0.09,0.17-0.14,1.67-0.14,4.51c0,0.4,0.02,1,0.05,1.79
		c0.03,0.79,0.05,1.38,0.05,1.79c0,0.26,1.17,0.39,3.52,0.39C101.22,27.19,102.63,25.76,102.63,22.91z"/>
	<path class="st7" d="M142.23,25.88c0,4.06-1.3,7.47-3.89,10.21c-2.64,2.79-5.99,4.18-10.04,4.18c-4.02,0-7.36-1.41-10.02-4.22
		c-2.6-2.75-3.91-6.14-3.91-10.18c0-4.05,1.3-7.45,3.91-10.21c2.66-2.83,6-4.24,10.02-4.24c4,0,7.33,1.41,10,4.24
		C140.92,18.45,142.23,21.86,142.23,25.88z M134.83,25.84c0-1.95-0.59-3.61-1.78-4.98c-1.24-1.43-2.82-2.15-4.75-2.15
		c-1.84,0-3.39,0.74-4.67,2.23c-1.24,1.43-1.86,3.08-1.86,4.94c0,1.99,0.58,3.65,1.74,4.98c1.22,1.39,2.82,2.09,4.79,2.09
		c1.84,0,3.4-0.74,4.69-2.21C134.22,29.34,134.83,27.7,134.83,25.84z"/>
	<path class="st7" d="M174.27,25.88c0,4.06-1.3,7.47-3.89,10.21c-2.64,2.79-5.99,4.18-10.04,4.18c-4.02,0-7.36-1.41-10.02-4.22
		c-2.6-2.75-3.91-6.14-3.91-10.18c0-4.05,1.3-7.45,3.91-10.21c2.66-2.83,6-4.24,10.02-4.24c4,0,7.33,1.41,10,4.24
		C172.96,18.45,174.27,21.86,174.27,25.88z M166.87,25.84c0-1.95-0.59-3.61-1.78-4.98c-1.24-1.43-2.82-2.15-4.75-2.15
		c-1.84,0-3.39,0.74-4.67,2.23c-1.24,1.43-1.86,3.08-1.86,4.94c0,1.99,0.58,3.65,1.74,4.98c1.22,1.39,2.82,2.09,4.79,2.09
		c1.84,0,3.4-0.74,4.69-2.21C166.26,29.34,166.87,27.7,166.87,25.84z"/>
	<path class="st7" d="M199.36,18.52c0,0.14-0.13,0.21-0.39,0.21c-0.98,0-2.46-0.08-4.44-0.25c-1.99-0.17-3.47-0.25-4.46-0.25
		c-1.25,0-1.98,0.05-2.19,0.14c-0.48,0.22-0.72,0.85-0.72,1.88c0,1.24,0.31,1.94,0.94,2.11c0.26,0.07,0.66,0.1,1.19,0.1
		c0.9,0,2.24-0.05,4.03-0.15s3.13-0.15,4.03-0.15c0.43,0,0.64,1.15,0.64,3.44c0,1.99-0.07,3.15-0.21,3.48
		c-0.09,0.23-0.27,0.35-0.53,0.35c0.17,0-0.24-0.04-1.23-0.14c-1.39-0.13-3.5-0.2-6.33-0.2c-0.91,0-1.43,0.01-1.54,0.02
		c-0.66,0.1-1,0.38-1,0.84c0,1.85,0.08,3.98,0.23,6.39c0.13,2.17,0.2,3.14,0.2,2.91c0,0.34-0.41,0.53-1.23,0.59
		c0.22-0.01-0.36-0.02-1.74-0.02c-2.43,0-4-0.08-4.71-0.25c-0.38-0.09-0.57-0.29-0.57-0.61c0-1.45,0.05-3.62,0.15-6.51
		c0.1-2.9,0.15-5.07,0.15-6.51c0-1.72-0.08-3.88-0.23-6.48c-0.23-4.02-0.36-6.18-0.37-6.48l-0.02-0.23
		c-0.01-0.33,0.18-0.49,0.59-0.49c0.96,0,2.42,0.02,4.37,0.06s3.41,0.06,4.38,0.06c1.04,0,2.61-0.08,4.7-0.23s3.66-0.23,4.7-0.23
		c0.65,0,1.02,0.27,1.09,0.8c0,0.56,0.03,1.4,0.08,2.52c0.03,0.29,0.11,0.84,0.25,1.66C199.29,17.57,199.36,18.13,199.36,18.52z"/>
	<path class="st7" d="M226.06,19.24c0,0.56-0.1,1.05-0.31,1.46c-1.71,3.37-4.03,6.92-6.97,10.64c-0.42,0.55-0.63,1.04-0.63,1.48
		c0,0.69,0.04,1.73,0.12,3.11c0.08,1.38,0.12,2.41,0.12,3.09c0,0.23-0.05,0.38-0.16,0.43c-0.03,0.01-0.2,0.05-0.53,0.1
		c-0.47,0.08-1.64,0.12-3.52,0.12c-1.89,0-3.09-0.04-3.61-0.12c-0.36-0.05-0.55-0.24-0.55-0.57c0-0.69,0.06-1.74,0.18-3.15
		c0.12-1.41,0.18-2.47,0.18-3.17c0-0.42-0.16-0.87-0.47-1.35c-1.58-2.23-3.83-5.64-6.76-10.23c-0.3-0.51-0.45-0.92-0.45-1.25
		c0-0.78-0.04-1.95-0.12-3.52s-0.12-2.73-0.12-3.52c0-0.43,0.13-0.64,0.39-0.64c0.79,0,2,0.03,3.61,0.1c1.61,0.07,2.83,0.1,3.63,0.1
		c0.3,0,0.45,0.1,0.45,0.29c0,0.66-0.03,1.66-0.09,3c-0.06,1.33-0.09,2.33-0.09,3c0,0.39,0.57,1.37,1.72,2.93
		c0.91,1.22,1.66,2.17,2.25,2.83c0.53-0.63,1.24-1.56,2.13-2.81c1.12-1.56,1.68-2.51,1.68-2.83c0-0.65-0.05-1.64-0.15-2.96
		c-0.1-1.32-0.15-2.31-0.15-2.96c0-0.27,0.06-0.43,0.18-0.47h0.49c0.78,0,1.96-0.04,3.53-0.11c1.57-0.07,2.75-0.11,3.54-0.11
		c0.26,0,0.39,0.28,0.39,0.84c0,0.69,0.01,1.73,0.04,3.12S226.06,18.54,226.06,19.24z"/>
</g>
</svg>
