<?xml version="1.0" encoding="utf-8"?>
<!-- Generator: Adobe Illustrator 23.1.0, SVG Export Plug-In . SVG Version: 6.00 Build 0)  -->
<svg version="1.1" id="Layer_1" xmlns="http://www.w3.org/2000/svg" xmlns:xlink="http://www.w3.org/1999/xlink" x="0px" y="0px"
	 viewBox="0 0 76.88 79.57" style="enable-background:new 0 0 76.88 79.57;" xml:space="preserve">
<style type="text/css">
	.st0{fill:url(#SVGID_1_);}
	.st1{fill:#28313A;}
	.st2{display:none;}
	.st3{display:inline;fill:#D7C097;}
	.st4{display:none;fill:#F05553;}
	.st5{display:none;fill:#88A57D;}
</style>
<g id="Logo">
	<linearGradient id="SVGID_1_" gradientUnits="userSpaceOnUse" x1="38.4397" y1="63.1123" x2="38.4397" y2="10.593">
		<stop  offset="0" style="stop-color:#507065"/>
		<stop  offset="1" style="stop-color:#88A57D"/>
	</linearGradient>
	<ellipse class="st0" cx="38.44" cy="39.78" rx="38.44" ry="39.78"/>
	<g>
		<path class="st1" d="M28.85,47.78c0.05-0.28,0.09-0.48,0.13-0.67c1.52-8.05,3-15.75,4.35-23.12c0.57-3.1,2.75-5.76,5.11-6.57
			c2.92-1,5.82-2.07,8.71-3.1c2.62-0.93,5.22-1.87,7.81-2.75c0.65-0.22,1.32-0.41,1.97-0.43c1.28-0.04,2.15,1.15,2.1,2.73
			c-0.01,0.3-0.03,0.61-0.06,0.91c-1.16,10.07-2.41,20.79-3.71,32.21c-0.34,2.96-1.53,5.32-3.38,7.25
			c-2.54,2.64-5.29,3.71-8.15,3.38c-1.58-0.18-2.95-0.91-3.9-2.47c-0.7-1.14-0.99-2.52-0.82-4.18c0.27-2.66,1.39-4.78,2.97-6.6
			c1.44-1.66,3.05-2.73,4.77-3.34c1.83-0.64,3.6-0.72,5.26-0.05c0.22,0.09,0.42,0.24,0.69,0.38c0.04-0.2,0.07-0.35,0.09-0.5
			c0.67-5.38,1.3-10.59,1.96-15.65c0.19-1.43-0.41-1.92-1.43-1.55c-1.43,0.52-2.86,1.06-4.3,1.6c-2.27,0.85-4.55,1.71-6.85,2.58
			c-1.64,0.62-3.29,1.2-4.93,1.88c-0.52,0.22-1.04,0.64-1.52,1.08c-0.55,0.51-0.8,1.25-0.94,2.03c-1.16,6.53-2.43,13.3-3.63,20.35
			c-0.7,4.09-2.5,7.19-5.38,9.4c-3.1,2.39-6.12,3.03-8.87,1.7c-1.2-0.58-2.07-1.67-2.4-3.4c-0.39-2.02,0.09-4.12,1.11-6.21
			c0.81-1.65,1.85-3,3.04-4.14c2.53-2.42,5.13-3.51,7.78-3.49C27.29,47.04,28.09,47.25,28.85,47.78z"/>
	</g>
	<g class="st2">
		<path class="st3" d="M31.14,53.18c1.2-7.04,2.47-13.82,3.63-20.35c0.14-0.79,0.39-1.52,0.94-2.03c0.47-0.44,1-0.87,1.52-1.08
			c1.64-0.68,3.29-1.26,4.93-1.88c2.29-0.86,4.58-1.73,6.85-2.58c1.44-0.54,2.87-1.08,4.3-1.6c0.31-0.11,0.58-0.14,0.81-0.09
			l-5.46-9.78c-0.5,0.18-1.01,0.36-1.51,0.54c-2.89,1.03-5.79,2.1-8.71,3.1c-2.36,0.81-4.55,3.47-5.11,6.57
			c-1.35,7.37-2.83,15.07-4.35,23.12c-0.04,0.2-0.07,0.4-0.13,0.67c-0.76-0.53-1.57-0.74-2.43-0.75c-2.65-0.01-5.25,1.08-7.78,3.49
			c-1.19,1.14-2.24,2.49-3.04,4.14c-0.84,1.71-1.31,3.41-1.24,5.08h14.16C29.82,57.93,30.7,55.75,31.14,53.18z"/>
		<path class="st3" d="M52.68,41.37c-0.26-0.15-0.46-0.29-0.69-0.38c-1.67-0.67-3.43-0.59-5.26,0.05c-1.72,0.6-3.33,1.68-4.77,3.34
			c-1.58,1.82-2.7,3.94-2.97,6.6c-0.17,1.65,0.12,3.04,0.82,4.18c0.95,1.56,2.32,2.29,3.9,2.47c2.86,0.32,5.61-0.74,8.15-3.38
			c1.85-1.93,3.04-4.3,3.38-7.25c0.7-6.1,1.38-12.01,2.04-17.72l-2.52-4.52c0,0.14-0.01,0.3-0.03,0.47
			c-0.66,5.06-1.29,10.28-1.96,15.65C52.75,41.02,52.72,41.17,52.68,41.37z"/>
	</g>
	<rect x="5.57" y="49.52" class="st4" width="60.99" height="12.19"/>
	<path class="st2" d="M3.93,2.97V71.7h64.25V2.97H3.93z M65.62,55.48V68.8H6.5V55.48H65.62z M65.62,39.27v13.32H6.5V39.27H65.62z
		 M65.62,23.05v13.32H6.5V23.05H65.62z M6.5,20.15V5.87h59.12v14.28H6.5z"/>
	<polygon class="st5" points="40.36,-1.08 6.43,59.75 74.3,59.75 	"/>
</g>
</svg>
